<svg width="16" height="16" viewBox="0 0 16 16" fill="none" xmlns="http://www.w3.org/2000/svg">
<g clip-path="url(#clip0_182_3)">
<path d="M14 1C14.2652 1 14.5196 1.10536 14.7071 1.29289C14.8946 1.48043 15 1.73478 15 2V14C15 14.2652 14.8946 14.5196 14.7071 14.7071C14.5196 14.8946 14.2652 15 14 15H2C1.73478 15 1.48043 14.8946 1.29289 14.7071C1.10536 14.5196 1 14.2652 1 14V2C1 1.73478 1.10536 1.48043 1.29289 1.29289C1.48043 1.10536 1.73478 1 2 1H14ZM2 0C1.46957 0 0.960859 0.210714 0.585786 0.585786C0.210714 0.960859 0 1.46957 0 2L0 14C0 14.5304 0.210714 15.0391 0.585786 15.4142C0.960859 15.7893 1.46957 16 2 16H14C14.5304 16 15.0391 15.7893 15.4142 15.4142C15.7893 15.0391 16 14.5304 16 14V2C16 1.46957 15.7893 0.960859 15.4142 0.585786C15.0391 0.210714 14.5304 0 14 0L2 0Z" fill="#545454"/>
<path d="M10.9702 4.97001C11.1101 4.83128 11.299 4.7532 11.4961 4.75266C11.6931 4.75211 11.8825 4.82915 12.0232 4.9671C12.1639 5.10505 12.2447 5.29285 12.248 5.48987C12.2514 5.6869 12.1771 5.87734 12.0412 6.02001L8.04916 11.01C7.98055 11.0839 7.89774 11.1432 7.80569 11.1844C7.71364 11.2255 7.61423 11.2477 7.51341 11.2496C7.41259 11.2514 7.31243 11.233 7.21891 11.1952C7.1254 11.1575 7.04046 11.1013 6.96916 11.03L4.32416 8.38401C4.25047 8.31534 4.19137 8.23254 4.15038 8.14054C4.10938 8.04854 4.08734 7.94923 4.08557 7.84853C4.08379 7.74783 4.10231 7.6478 4.14004 7.55441C4.17776 7.46102 4.2339 7.37619 4.30512 7.30497C4.37634 7.23375 4.46117 7.1776 4.55456 7.13988C4.64795 7.10216 4.74798 7.08364 4.84868 7.08541C4.94938 7.08719 5.0487 7.10923 5.1407 7.15022C5.2327 7.19122 5.3155 7.25032 5.38416 7.32401L7.47816 9.41701L10.9512 4.99201C10.9574 4.98426 10.964 4.97691 10.9712 4.97001H10.9702Z" fill="#545454"/>
</g>
<defs>
<clipPath id="clip0_182_3">
<rect width="16" height="16" fill="white"/>
</clipPath>
</defs>
</svg>
